<?xml version="1.0" encoding="utf-8" standalone="no"?>
<!DOCTYPE svg PUBLIC "-//W3C//DTD SVG 1.1//EN"
  "http://www.w3.org/Graphics/SVG/1.1/DTD/svg11.dtd">
<svg xmlns:xlink="http://www.w3.org/1999/xlink" width="720pt" height="432pt" viewBox="0 0 720 432" xmlns="http://www.w3.org/2000/svg" version="1.1">
 <metadata>
  <rdf:RDF xmlns:dc="http://purl.org/dc/elements/1.1/" xmlns:cc="http://creativecommons.org/ns#" xmlns:rdf="http://www.w3.org/1999/02/22-rdf-syntax-ns#">
   <cc:Work>
    <dc:type rdf:resource="http://purl.org/dc/dcmitype/StillImage"/>
    <dc:date>2025-11-11T20:44:38.189889</dc:date>
    <dc:format>image/svg+xml</dc:format>
    <dc:creator>
     <cc:Agent>
      <dc:title>Matplotlib v3.10.7, https://matplotlib.org/</dc:title>
     </cc:Agent>
    </dc:creator>
   </cc:Work>
  </rdf:RDF>
 </metadata>
 <defs>
  <style type="text/css">*{stroke-linejoin: round; stroke-linecap: butt}</style>
 </defs>
 <g id="figure_1">
  <g id="patch_1">
   <path d="M 0 432 
L 720 432 
L 720 0 
L 0 0 
z
" style="fill: #ffffff"/>
  </g>
  <g id="axes_1">
   <g id="patch_2">
    <path d="M 90 384.48 
L 648 384.48 
L 648 51.84 
L 90 51.84 
z
" style="fill: #ffffff"/>
   </g>
   <g id="FillBetweenPolyCollection_1">
    <defs>
     <path id="mede96d4992" d="M 128.482759 -357.21931 
L 128.482759 -81.931034 
L 147.724138 -93.401379 
L 166.965517 -104.871724 
L 186.206897 -116.342069 
L 205.448276 -127.812414 
L 224.689655 -139.282759 
L 243.931034 -150.753103 
L 263.172414 -162.223448 
L 282.413793 -173.693793 
L 301.655172 -185.164138 
L 320.896552 -196.634483 
L 340.137931 -208.104828 
L 359.37931 -219.575172 
L 378.62069 -231.045517 
L 397.862069 -242.515862 
L 417.103448 -253.986207 
L 436.344828 -265.456552 
L 455.586207 -276.926897 
L 474.827586 -288.397241 
L 494.068966 -299.867586 
L 513.310345 -311.337931 
L 532.551724 -322.808276 
L 551.793103 -334.278621 
L 571.034483 -345.748966 
L 590.275862 -357.21931 
L 590.275862 -357.21931 
L 590.275862 -357.21931 
L 571.034483 -357.21931 
L 551.793103 -357.21931 
L 532.551724 -357.21931 
L 513.310345 -357.21931 
L 494.068966 -357.21931 
L 474.827586 -357.21931 
L 455.586207 -357.21931 
L 436.344828 -357.21931 
L 417.103448 -357.21931 
L 397.862069 -357.21931 
L 378.62069 -357.21931 
L 359.37931 -357.21931 
L 340.137931 -357.21931 
L 320.896552 -357.21931 
L 301.655172 -357.21931 
L 282.413793 -357.21931 
L 263.172414 -357.21931 
L 243.931034 -357.21931 
L 224.689655 -357.21931 
L 205.448276 -357.21931 
L 186.206897 -357.21931 
L 166.965517 -357.21931 
L 147.724138 -357.21931 
L 128.482759 -357.21931 
z
" style="stroke: #ff0000; stroke-opacity: 0.3"/>
    </defs>
    <g clip-path="url(#p277d882e0b)">
     <use xlink:href="#mede96d4992" x="0" y="432" style="fill: #ff0000; fill-opacity: 0.3; stroke: #ff0000; stroke-opacity: 0.3"/>
    </g>
   </g>
   <g id="FillBetweenPolyCollection_2">
    <defs>
     <path id="m7989983473" d="M 166.965517 -70.46069 
L 166.965517 -70.46069 
L 186.206897 -70.46069 
L 205.448276 -70.46069 
L 224.689655 -70.46069 
L 243.931034 -70.46069 
L 263.172414 -70.46069 
L 282.413793 -70.46069 
L 301.655172 -70.46069 
L 320.896552 -70.46069 
L 340.137931 -70.46069 
L 359.37931 -70.46069 
L 378.62069 -70.46069 
L 397.862069 -70.46069 
L 417.103448 -70.46069 
L 436.344828 -70.46069 
L 455.586207 -70.46069 
L 474.827586 -70.46069 
L 494.068966 -70.46069 
L 513.310345 -70.46069 
L 532.551724 -70.46069 
L 551.793103 -70.46069 
L 571.034483 -70.46069 
L 590.275862 -70.46069 
L 609.517241 -70.46069 
L 609.517241 -334.278621 
L 609.517241 -334.278621 
L 590.275862 -322.808276 
L 571.034483 -311.337931 
L 551.793103 -299.867586 
L 532.551724 -288.397241 
L 513.310345 -276.926897 
L 494.068966 -265.456552 
L 474.827586 -253.986207 
L 455.586207 -242.515862 
L 436.344828 -231.045517 
L 417.103448 -219.575172 
L 397.862069 -208.104828 
L 378.62069 -196.634483 
L 359.37931 -185.164138 
L 340.137931 -173.693793 
L 320.896552 -162.223448 
L 301.655172 -150.753103 
L 282.413793 -139.282759 
L 263.172414 -127.812414 
L 243.931034 -116.342069 
L 224.689655 -104.871724 
L 205.448276 -93.401379 
L 186.206897 -81.931034 
L 166.965517 -70.46069 
z
" style="stroke: #008000; stroke-opacity: 0.3"/>
    </defs>
    <g clip-path="url(#p277d882e0b)">
     <use xlink:href="#m7989983473" x="0" y="432" style="fill: #008000; fill-opacity: 0.3; stroke: #008000; stroke-opacity: 0.3"/>
    </g>
   </g>
   <g id="patch_3">
    <path d="M 628.758621 361.53931 
L 619.137931 367.274483 
L 619.137931 361.545046 
L 609.517241 361.545046 
L 609.517241 361.533575 
L 619.137931 361.533575 
L 619.137931 355.804138 
z
" clip-path="url(#p277d882e0b)" style="stroke: #000000; stroke-linejoin: miter"/>
   </g>
   <g id="patch_4">
    <path d="M 128.482759 63.310345 
L 138.103448 69.045517 
L 128.492379 69.045517 
L 128.492379 74.78069 
L 128.473138 74.78069 
L 128.473138 69.045517 
L 118.862069 69.045517 
z
" clip-path="url(#p277d882e0b)" style="stroke: #000000; stroke-linejoin: miter"/>
   </g>
   <g id="matplotlib.axis_1">
    <g id="xtick_1">
     <g id="line2d_1">
      <path d="M 128.482759 384.48 
L 128.482759 51.84 
" clip-path="url(#p277d882e0b)" style="fill: none; stroke: #b0b0b0; stroke-opacity: 0.3; stroke-width: 0.8; stroke-linecap: square"/>
     </g>
     <g id="line2d_2">
      <defs>
       <path id="m3d1ec4f5f6" d="M 0 0 
L 0 3.5 
" style="stroke: #000000; stroke-width: 0.8"/>
      </defs>
      <g>
       <use xlink:href="#m3d1ec4f5f6" x="128.482759" y="384.48" style="stroke: #000000; stroke-width: 0.8"/>
      </g>
     </g>
     <g id="text_1">
      <!-- 0 -->
      <g transform="translate(125.301509 399.078438) scale(0.1 -0.1)">
       <defs>
        <path id="DejaVuSans-30" d="M 2034 4250 
Q 1547 4250 1301 3770 
Q 1056 3291 1056 2328 
Q 1056 1369 1301 889 
Q 1547 409 2034 409 
Q 2525 409 2770 889 
Q 3016 1369 3016 2328 
Q 3016 3291 2770 3770 
Q 2525 4250 2034 4250 
z
M 2034 4750 
Q 2819 4750 3233 4129 
Q 3647 3509 3647 2328 
Q 3647 1150 3233 529 
Q 2819 -91 2034 -91 
Q 1250 -91 836 529 
Q 422 1150 422 2328 
Q 422 3509 836 4129 
Q 1250 4750 2034 4750 
z
" transform="scale(0.015625)"/>
       </defs>
       <use xlink:href="#DejaVuSans-30"/>
      </g>
     </g>
    </g>
    <g id="xtick_2">
     <g id="line2d_3">
      <path d="M 224.689655 384.48 
L 224.689655 51.84 
" clip-path="url(#p277d882e0b)" style="fill: none; stroke: #b0b0b0; stroke-opacity: 0.3; stroke-width: 0.8; stroke-linecap: square"/>
     </g>
     <g id="line2d_4">
      <g>
       <use xlink:href="#m3d1ec4f5f6" x="224.689655" y="384.48" style="stroke: #000000; stroke-width: 0.8"/>
      </g>
     </g>
     <g id="text_2">
      <!-- 5 -->
      <g transform="translate(221.508405 399.078438) scale(0.1 -0.1)">
       <defs>
        <path id="DejaVuSans-35" d="M 691 4666 
L 3169 4666 
L 3169 4134 
L 1269 4134 
L 1269 2991 
Q 1406 3038 1543 3061 
Q 1681 3084 1819 3084 
Q 2600 3084 3056 2656 
Q 3513 2228 3513 1497 
Q 3513 744 3044 326 
Q 2575 -91 1722 -91 
Q 1428 -91 1123 -41 
Q 819 9 494 109 
L 494 744 
Q 775 591 1075 516 
Q 1375 441 1709 441 
Q 2250 441 2565 725 
Q 2881 1009 2881 1497 
Q 2881 1984 2565 2268 
Q 2250 2553 1709 2553 
Q 1456 2553 1204 2497 
Q 953 2441 691 2322 
L 691 4666 
z
" transform="scale(0.015625)"/>
       </defs>
       <use xlink:href="#DejaVuSans-35"/>
      </g>
     </g>
    </g>
    <g id="xtick_3">
     <g id="line2d_5">
      <path d="M 320.896552 384.48 
L 320.896552 51.84 
" clip-path="url(#p277d882e0b)" style="fill: none; stroke: #b0b0b0; stroke-opacity: 0.3; stroke-width: 0.8; stroke-linecap: square"/>
     </g>
     <g id="line2d_6">
      <g>
       <use xlink:href="#m3d1ec4f5f6" x="320.896552" y="384.48" style="stroke: #000000; stroke-width: 0.8"/>
      </g>
     </g>
     <g id="text_3">
      <!-- 10 -->
      <g transform="translate(314.534052 399.078438) scale(0.1 -0.1)">
       <defs>
        <path id="DejaVuSans-31" d="M 794 531 
L 1825 531 
L 1825 4091 
L 703 3866 
L 703 4441 
L 1819 4666 
L 2450 4666 
L 2450 531 
L 3481 531 
L 3481 0 
L 794 0 
L 794 531 
z
" transform="scale(0.015625)"/>
       </defs>
       <use xlink:href="#DejaVuSans-31"/>
       <use xlink:href="#DejaVuSans-30" transform="translate(63.623047 0)"/>
      </g>
     </g>
    </g>
    <g id="xtick_4">
     <g id="line2d_7">
      <path d="M 417.103448 384.48 
L 417.103448 51.84 
" clip-path="url(#p277d882e0b)" style="fill: none; stroke: #b0b0b0; stroke-opacity: 0.3; stroke-width: 0.8; stroke-linecap: square"/>
     </g>
     <g id="line2d_8">
      <g>
       <use xlink:href="#m3d1ec4f5f6" x="417.103448" y="384.48" style="stroke: #000000; stroke-width: 0.8"/>
      </g>
     </g>
     <g id="text_4">
      <!-- 15 -->
      <g transform="translate(410.740948 399.078438) scale(0.1 -0.1)">
       <use xlink:href="#DejaVuSans-31"/>
       <use xlink:href="#DejaVuSans-35" transform="translate(63.623047 0)"/>
      </g>
     </g>
    </g>
    <g id="xtick_5">
     <g id="line2d_9">
      <path d="M 513.310345 384.48 
L 513.310345 51.84 
" clip-path="url(#p277d882e0b)" style="fill: none; stroke: #b0b0b0; stroke-opacity: 0.3; stroke-width: 0.8; stroke-linecap: square"/>
     </g>
     <g id="line2d_10">
      <g>
       <use xlink:href="#m3d1ec4f5f6" x="513.310345" y="384.48" style="stroke: #000000; stroke-width: 0.8"/>
      </g>
     </g>
     <g id="text_5">
      <!-- 20 -->
      <g transform="translate(506.947845 399.078438) scale(0.1 -0.1)">
       <defs>
        <path id="DejaVuSans-32" d="M 1228 531 
L 3431 531 
L 3431 0 
L 469 0 
L 469 531 
Q 828 903 1448 1529 
Q 2069 2156 2228 2338 
Q 2531 2678 2651 2914 
Q 2772 3150 2772 3378 
Q 2772 3750 2511 3984 
Q 2250 4219 1831 4219 
Q 1534 4219 1204 4116 
Q 875 4013 500 3803 
L 500 4441 
Q 881 4594 1212 4672 
Q 1544 4750 1819 4750 
Q 2544 4750 2975 4387 
Q 3406 4025 3406 3419 
Q 3406 3131 3298 2873 
Q 3191 2616 2906 2266 
Q 2828 2175 2409 1742 
Q 1991 1309 1228 531 
z
" transform="scale(0.015625)"/>
       </defs>
       <use xlink:href="#DejaVuSans-32"/>
       <use xlink:href="#DejaVuSans-30" transform="translate(63.623047 0)"/>
      </g>
     </g>
    </g>
    <g id="xtick_6">
     <g id="line2d_11">
      <path d="M 609.517241 384.48 
L 609.517241 51.84 
" clip-path="url(#p277d882e0b)" style="fill: none; stroke: #b0b0b0; stroke-opacity: 0.3; stroke-width: 0.8; stroke-linecap: square"/>
     </g>
     <g id="line2d_12">
      <g>
       <use xlink:href="#m3d1ec4f5f6" x="609.517241" y="384.48" style="stroke: #000000; stroke-width: 0.8"/>
      </g>
     </g>
     <g id="text_6">
      <!-- 25 -->
      <g transform="translate(603.154741 399.078438) scale(0.1 -0.1)">
       <use xlink:href="#DejaVuSans-32"/>
       <use xlink:href="#DejaVuSans-35" transform="translate(63.623047 0)"/>
      </g>
     </g>
    </g>
    <g id="text_7">
     <!-- x -->
     <g transform="translate(366.040625 412.756563) scale(0.1 -0.1)">
      <defs>
       <path id="DejaVuSans-78" d="M 3513 3500 
L 2247 1797 
L 3578 0 
L 2900 0 
L 1881 1375 
L 863 0 
L 184 0 
L 1544 1831 
L 300 3500 
L 978 3500 
L 1906 2253 
L 2834 3500 
L 3513 3500 
z
" transform="scale(0.015625)"/>
      </defs>
      <use xlink:href="#DejaVuSans-78"/>
     </g>
    </g>
   </g>
   <g id="matplotlib.axis_2">
    <g id="ytick_1">
     <g id="line2d_13">
      <path d="M 90 361.53931 
L 648 361.53931 
" clip-path="url(#p277d882e0b)" style="fill: none; stroke: #b0b0b0; stroke-opacity: 0.3; stroke-width: 0.8; stroke-linecap: square"/>
     </g>
     <g id="line2d_14">
      <defs>
       <path id="mbc50de8959" d="M 0 0 
L -3.5 0 
" style="stroke: #000000; stroke-width: 0.8"/>
      </defs>
      <g>
       <use xlink:href="#mbc50de8959" x="90" y="361.53931" style="stroke: #000000; stroke-width: 0.8"/>
      </g>
     </g>
     <g id="text_8">
      <!-- 0 -->
      <g transform="translate(76.6375 365.338529) scale(0.1 -0.1)">
       <use xlink:href="#DejaVuSans-30"/>
      </g>
     </g>
    </g>
    <g id="ytick_2">
     <g id="line2d_15">
      <path d="M 90 304.187586 
L 648 304.187586 
" clip-path="url(#p277d882e0b)" style="fill: none; stroke: #b0b0b0; stroke-opacity: 0.3; stroke-width: 0.8; stroke-linecap: square"/>
     </g>
     <g id="line2d_16">
      <g>
       <use xlink:href="#mbc50de8959" x="90" y="304.187586" style="stroke: #000000; stroke-width: 0.8"/>
      </g>
     </g>
     <g id="text_9">
      <!-- 5 -->
      <g transform="translate(76.6375 307.986805) scale(0.1 -0.1)">
       <use xlink:href="#DejaVuSans-35"/>
      </g>
     </g>
    </g>
    <g id="ytick_3">
     <g id="line2d_17">
      <path d="M 90 246.835862 
L 648 246.835862 
" clip-path="url(#p277d882e0b)" style="fill: none; stroke: #b0b0b0; stroke-opacity: 0.3; stroke-width: 0.8; stroke-linecap: square"/>
     </g>
     <g id="line2d_18">
      <g>
       <use xlink:href="#mbc50de8959" x="90" y="246.835862" style="stroke: #000000; stroke-width: 0.8"/>
      </g>
     </g>
     <g id="text_10">
      <!-- 10 -->
      <g transform="translate(70.275 250.635081) scale(0.1 -0.1)">
       <use xlink:href="#DejaVuSans-31"/>
       <use xlink:href="#DejaVuSans-30" transform="translate(63.623047 0)"/>
      </g>
     </g>
    </g>
    <g id="ytick_4">
     <g id="line2d_19">
      <path d="M 90 189.484138 
L 648 189.484138 
" clip-path="url(#p277d882e0b)" style="fill: none; stroke: #b0b0b0; stroke-opacity: 0.3; stroke-width: 0.8; stroke-linecap: square"/>
     </g>
     <g id="line2d_20">
      <g>
       <use xlink:href="#mbc50de8959" x="90" y="189.484138" style="stroke: #000000; stroke-width: 0.8"/>
      </g>
     </g>
     <g id="text_11">
      <!-- 15 -->
      <g transform="translate(70.275 193.283357) scale(0.1 -0.1)">
       <use xlink:href="#DejaVuSans-31"/>
       <use xlink:href="#DejaVuSans-35" transform="translate(63.623047 0)"/>
      </g>
     </g>
    </g>
    <g id="ytick_5">
     <g id="line2d_21">
      <path d="M 90 132.132414 
L 648 132.132414 
" clip-path="url(#p277d882e0b)" style="fill: none; stroke: #b0b0b0; stroke-opacity: 0.3; stroke-width: 0.8; stroke-linecap: square"/>
     </g>
     <g id="line2d_22">
      <g>
       <use xlink:href="#mbc50de8959" x="90" y="132.132414" style="stroke: #000000; stroke-width: 0.8"/>
      </g>
     </g>
     <g id="text_12">
      <!-- 20 -->
      <g transform="translate(70.275 135.931633) scale(0.1 -0.1)">
       <use xlink:href="#DejaVuSans-32"/>
       <use xlink:href="#DejaVuSans-30" transform="translate(63.623047 0)"/>
      </g>
     </g>
    </g>
    <g id="ytick_6">
     <g id="line2d_23">
      <path d="M 90 74.78069 
L 648 74.78069 
" clip-path="url(#p277d882e0b)" style="fill: none; stroke: #b0b0b0; stroke-opacity: 0.3; stroke-width: 0.8; stroke-linecap: square"/>
     </g>
     <g id="line2d_24">
      <g>
       <use xlink:href="#mbc50de8959" x="90" y="74.78069" style="stroke: #000000; stroke-width: 0.8"/>
      </g>
     </g>
     <g id="text_13">
      <!-- 25 -->
      <g transform="translate(70.275 78.579908) scale(0.1 -0.1)">
       <use xlink:href="#DejaVuSans-32"/>
       <use xlink:href="#DejaVuSans-35" transform="translate(63.623047 0)"/>
      </g>
     </g>
    </g>
    <g id="text_14">
     <!-- y -->
     <g transform="translate(64.195312 221.119375) rotate(-90) scale(0.1 -0.1)">
      <defs>
       <path id="DejaVuSans-79" d="M 2059 -325 
Q 1816 -950 1584 -1140 
Q 1353 -1331 966 -1331 
L 506 -1331 
L 506 -850 
L 844 -850 
Q 1081 -850 1212 -737 
Q 1344 -625 1503 -206 
L 1606 56 
L 191 3500 
L 800 3500 
L 1894 763 
L 2988 3500 
L 3597 3500 
L 2059 -325 
z
" transform="scale(0.015625)"/>
      </defs>
      <use xlink:href="#DejaVuSans-79"/>
     </g>
    </g>
   </g>
   <g id="line2d_25">
    <path d="M 128.482759 350.068966 
L 147.724138 338.598621 
L 166.965517 327.128276 
L 186.206897 315.657931 
L 205.448276 304.187586 
L 224.689655 292.717241 
L 243.931034 281.246897 
L 263.172414 269.776552 
L 282.413793 258.306207 
L 301.655172 246.835862 
L 320.896552 235.365517 
L 340.137931 223.895172 
L 359.37931 212.424828 
L 378.62069 200.954483 
L 397.862069 189.484138 
L 417.103448 178.013793 
L 436.344828 166.543448 
L 455.586207 155.073103 
L 474.827586 143.602759 
L 494.068966 132.132414 
L 513.310345 120.662069 
L 532.551724 109.191724 
L 551.793103 97.721379 
L 571.034483 86.251034 
L 590.275862 74.78069 
" clip-path="url(#p277d882e0b)" style="fill: none; stroke: #ff0000; stroke-width: 1.5; stroke-linecap: square"/>
   </g>
   <g id="line2d_26">
    <path d="M 166.965517 361.53931 
L 186.206897 350.068966 
L 205.448276 338.598621 
L 224.689655 327.128276 
L 243.931034 315.657931 
L 263.172414 304.187586 
L 282.413793 292.717241 
L 301.655172 281.246897 
L 320.896552 269.776552 
L 340.137931 258.306207 
L 359.37931 246.835862 
L 378.62069 235.365517 
L 397.862069 223.895172 
L 417.103448 212.424828 
L 436.344828 200.954483 
L 455.586207 189.484138 
L 474.827586 178.013793 
L 494.068966 166.543448 
L 513.310345 155.073103 
L 532.551724 143.602759 
L 551.793103 132.132414 
L 571.034483 120.662069 
L 590.275862 109.191724 
L 609.517241 97.721379 
" clip-path="url(#p277d882e0b)" style="fill: none; stroke: #008000; stroke-width: 1.5; stroke-linecap: square"/>
   </g>
   <g id="line2d_27">
    <path d="M 90 361.53931 
L 648 361.53931 
" clip-path="url(#p277d882e0b)" style="fill: none; stroke: #000000; stroke-width: 0.8; stroke-linecap: square"/>
   </g>
   <g id="line2d_28">
    <path d="M 128.482759 384.48 
L 128.482759 51.84 
" clip-path="url(#p277d882e0b)" style="fill: none; stroke: #000000; stroke-width: 0.8; stroke-linecap: square"/>
   </g>
   <g id="patch_5">
    <path d="M 90 384.48 
L 90 51.84 
" style="fill: none; stroke: #000000; stroke-width: 0.8; stroke-linejoin: miter; stroke-linecap: square"/>
   </g>
   <g id="patch_6">
    <path d="M 648 384.48 
L 648 51.84 
" style="fill: none; stroke: #000000; stroke-width: 0.8; stroke-linejoin: miter; stroke-linecap: square"/>
   </g>
   <g id="patch_7">
    <path d="M 90 384.48 
L 648 384.48 
" style="fill: none; stroke: #000000; stroke-width: 0.8; stroke-linejoin: miter; stroke-linecap: square"/>
   </g>
   <g id="patch_8">
    <path d="M 90 51.84 
L 648 51.84 
" style="fill: none; stroke: #000000; stroke-width: 0.8; stroke-linejoin: miter; stroke-linecap: square"/>
   </g>
   <g id="text_15">
    <!-- x -->
    <g transform="translate(628.758621 373.009655) scale(0.12 -0.12)">
     <use xlink:href="#DejaVuSans-78"/>
    </g>
   </g>
   <g id="text_16">
    <!-- y -->
    <g transform="translate(109.241379 63.310345) scale(0.12 -0.12)">
     <use xlink:href="#DejaVuSans-79"/>
    </g>
   </g>
   <g id="legend_1">
    <g id="patch_9">
     <path d="M 485.176562 249.01625 
L 641 249.01625 
Q 643 249.01625 643 247.01625 
L 643 189.30375 
Q 643 187.30375 641 187.30375 
L 485.176562 187.30375 
Q 483.176562 187.30375 483.176562 189.30375 
L 483.176562 247.01625 
Q 483.176562 249.01625 485.176562 249.01625 
z
" style="fill: #ffffff; opacity: 0.8; stroke: #cccccc; stroke-linejoin: miter"/>
    </g>
    <g id="line2d_29">
     <path d="M 487.176562 195.402188 
L 497.176562 195.402188 
L 507.176562 195.402188 
" style="fill: none; stroke: #ff0000; stroke-width: 1.5; stroke-linecap: square"/>
    </g>
    <g id="text_17">
     <!-- y = x + 1 -->
     <g transform="translate(515.176563 198.902188) scale(0.1 -0.1)">
      <defs>
       <path id="DejaVuSans-20" transform="scale(0.015625)"/>
       <path id="DejaVuSans-3d" d="M 678 2906 
L 4684 2906 
L 4684 2381 
L 678 2381 
L 678 2906 
z
M 678 1631 
L 4684 1631 
L 4684 1100 
L 678 1100 
L 678 1631 
z
" transform="scale(0.015625)"/>
       <path id="DejaVuSans-2b" d="M 2944 4013 
L 2944 2272 
L 4684 2272 
L 4684 1741 
L 2944 1741 
L 2944 0 
L 2419 0 
L 2419 1741 
L 678 1741 
L 678 2272 
L 2419 2272 
L 2419 4013 
L 2944 4013 
z
" transform="scale(0.015625)"/>
      </defs>
      <use xlink:href="#DejaVuSans-79"/>
      <use xlink:href="#DejaVuSans-20" transform="translate(59.179688 0)"/>
      <use xlink:href="#DejaVuSans-3d" transform="translate(90.966797 0)"/>
      <use xlink:href="#DejaVuSans-20" transform="translate(174.755859 0)"/>
      <use xlink:href="#DejaVuSans-78" transform="translate(206.542969 0)"/>
      <use xlink:href="#DejaVuSans-20" transform="translate(265.722656 0)"/>
      <use xlink:href="#DejaVuSans-2b" transform="translate(297.509766 0)"/>
      <use xlink:href="#DejaVuSans-20" transform="translate(381.298828 0)"/>
      <use xlink:href="#DejaVuSans-31" transform="translate(413.085938 0)"/>
     </g>
    </g>
    <g id="line2d_30">
     <path d="M 487.176562 210.080313 
L 497.176562 210.080313 
L 507.176562 210.080313 
" style="fill: none; stroke: #008000; stroke-width: 1.5; stroke-linecap: square"/>
    </g>
    <g id="text_18">
     <!-- y = x - 2 -->
     <g transform="translate(515.176563 213.580313) scale(0.1 -0.1)">
      <defs>
       <path id="DejaVuSans-2d" d="M 313 2009 
L 1997 2009 
L 1997 1497 
L 313 1497 
L 313 2009 
z
" transform="scale(0.015625)"/>
      </defs>
      <use xlink:href="#DejaVuSans-79"/>
      <use xlink:href="#DejaVuSans-20" transform="translate(59.179688 0)"/>
      <use xlink:href="#DejaVuSans-3d" transform="translate(90.966797 0)"/>
      <use xlink:href="#DejaVuSans-20" transform="translate(174.755859 0)"/>
      <use xlink:href="#DejaVuSans-78" transform="translate(206.542969 0)"/>
      <use xlink:href="#DejaVuSans-20" transform="translate(265.722656 0)"/>
      <use xlink:href="#DejaVuSans-2d" transform="translate(297.509766 0)"/>
      <use xlink:href="#DejaVuSans-20" transform="translate(333.59375 0)"/>
      <use xlink:href="#DejaVuSans-32" transform="translate(365.380859 0)"/>
     </g>
    </g>
    <g id="patch_10">
     <path d="M 487.176562 228.258438 
L 507.176562 228.258438 
L 507.176562 221.258438 
L 487.176562 221.258438 
z
" style="fill: #ff0000; fill-opacity: 0.3; stroke: #ff0000; stroke-opacity: 0.3; stroke-linejoin: miter"/>
    </g>
    <g id="text_19">
     <!-- Зона без ожидания 2го -->
     <g transform="translate(515.176563 228.258438) scale(0.1 -0.1)">
      <defs>
       <path id="DejaVuSans-417" d="M 1828 4750 
Q 2597 4750 3084 4423 
Q 3572 4097 3572 3541 
Q 3572 3153 3350 2886 
Q 3128 2619 2719 2516 
Q 3172 2419 3426 2112 
Q 3681 1806 3681 1356 
Q 3681 638 3126 273 
Q 2572 -91 1828 -91 
Q 1447 -91 1003 12 
Q 559 116 422 203 
L 422 853 
Q 900 575 1164 508 
Q 1428 441 1816 441 
Q 2403 441 2728 666 
Q 3053 891 3053 1356 
Q 3053 1769 2764 2001 
Q 2475 2234 1866 2234 
L 1228 2234 
L 1228 2753 
L 1891 2753 
Q 2450 2753 2697 2939 
Q 2944 3125 2944 3475 
Q 2944 3834 2689 4026 
Q 2434 4219 1816 4219 
Q 1397 4219 1253 4181 
Q 1109 4144 469 3903 
L 469 4519 
Q 822 4644 1190 4697 
Q 1559 4750 1828 4750 
z
" transform="scale(0.015625)"/>
       <path id="DejaVuSans-43e" d="M 1959 3097 
Q 1497 3097 1228 2736 
Q 959 2375 959 1747 
Q 959 1119 1226 758 
Q 1494 397 1959 397 
Q 2419 397 2687 759 
Q 2956 1122 2956 1747 
Q 2956 2369 2687 2733 
Q 2419 3097 1959 3097 
z
M 1959 3584 
Q 2709 3584 3137 3096 
Q 3566 2609 3566 1747 
Q 3566 888 3137 398 
Q 2709 -91 1959 -91 
Q 1206 -91 779 398 
Q 353 888 353 1747 
Q 353 2609 779 3096 
Q 1206 3584 1959 3584 
z
" transform="scale(0.015625)"/>
       <path id="DejaVuSans-43d" d="M 581 3500 
L 1159 3500 
L 1159 2072 
L 3025 2072 
L 3025 3500 
L 3603 3500 
L 3603 0 
L 3025 0 
L 3025 1613 
L 1159 1613 
L 1159 0 
L 581 0 
L 581 3500 
z
" transform="scale(0.015625)"/>
       <path id="DejaVuSans-430" d="M 2194 1759 
Q 1497 1759 1228 1600 
Q 959 1441 959 1056 
Q 959 750 1161 570 
Q 1363 391 1709 391 
Q 2188 391 2477 730 
Q 2766 1069 2766 1631 
L 2766 1759 
L 2194 1759 
z
M 3341 1997 
L 3341 0 
L 2766 0 
L 2766 531 
Q 2569 213 2275 61 
Q 1981 -91 1556 -91 
Q 1019 -91 701 211 
Q 384 513 384 1019 
Q 384 1609 779 1909 
Q 1175 2209 1959 2209 
L 2766 2209 
L 2766 2266 
Q 2766 2663 2505 2880 
Q 2244 3097 1772 3097 
Q 1472 3097 1187 3025 
Q 903 2953 641 2809 
L 641 3341 
Q 956 3463 1253 3523 
Q 1550 3584 1831 3584 
Q 2591 3584 2966 3190 
Q 3341 2797 3341 1997 
z
" transform="scale(0.015625)"/>
       <path id="DejaVuSans-431" d="M 1991 3584 
Q 2741 3584 3169 3096 
Q 3597 2609 3597 1747 
Q 3597 888 3169 398 
Q 2741 -91 1991 -91 
Q 1238 -91 822 384 
Q 406 859 384 1747 
L 366 2463 
Q 350 2834 350 2963 
Q 350 3463 531 3831 
Q 816 4409 1308 4659 
Q 1800 4909 2625 4916 
Q 3006 4919 3175 4972 
L 3334 4516 
Q 3181 4453 3041 4450 
L 2259 4397 
Q 1866 4369 1628 4231 
Q 1006 3866 947 3388 
L 925 3213 
Q 1331 3584 1991 3584 
z
M 1991 3097 
Q 1528 3097 1259 2736 
Q 991 2375 991 1747 
Q 991 1119 1258 758 
Q 1525 397 1991 397 
Q 2450 397 2719 759 
Q 2988 1122 2988 1747 
Q 2988 2369 2719 2733 
Q 2450 3097 1991 3097 
z
" transform="scale(0.015625)"/>
       <path id="DejaVuSans-435" d="M 3597 1894 
L 3597 1613 
L 953 1613 
Q 991 1019 1311 708 
Q 1631 397 2203 397 
Q 2534 397 2845 478 
Q 3156 559 3463 722 
L 3463 178 
Q 3153 47 2828 -22 
Q 2503 -91 2169 -91 
Q 1331 -91 842 396 
Q 353 884 353 1716 
Q 353 2575 817 3079 
Q 1281 3584 2069 3584 
Q 2775 3584 3186 3129 
Q 3597 2675 3597 1894 
z
M 3022 2063 
Q 3016 2534 2758 2815 
Q 2500 3097 2075 3097 
Q 1594 3097 1305 2825 
Q 1016 2553 972 2059 
L 3022 2063 
z
" transform="scale(0.015625)"/>
       <path id="DejaVuSans-437" d="M 2206 1888 
Q 2594 1813 2809 1584 
Q 3025 1356 3025 1019 
Q 3025 478 2622 193 
Q 2219 -91 1475 -91 
Q 1225 -91 961 -47 
Q 697 -3 416 84 
L 416 619 
Q 638 503 903 445 
Q 1169 388 1459 388 
Q 1931 388 2195 563 
Q 2459 738 2459 1019 
Q 2459 1294 2225 1461 
Q 1991 1628 1563 1628 
L 1100 1628 
L 1100 2103 
L 1584 2103 
Q 1947 2103 2158 2242 
Q 2369 2381 2369 2600 
Q 2369 2800 2151 2944 
Q 1934 3088 1563 3088 
Q 1341 3088 1089 3047 
Q 838 3006 534 2916 
L 534 3438 
Q 841 3513 1106 3550 
Q 1372 3588 1609 3588 
Q 2222 3588 2576 3342 
Q 2931 3097 2931 2656 
Q 2931 2366 2743 2164 
Q 2556 1963 2206 1888 
z
" transform="scale(0.015625)"/>
       <path id="DejaVuSans-436" d="M 2597 3500 
L 3169 3500 
L 3169 1856 
L 4697 3500 
L 5366 3500 
L 4109 2153 
L 5547 0 
L 4931 0 
L 3753 1769 
L 3169 1141 
L 3169 0 
L 2597 0 
L 2597 1141 
L 2013 1769 
L 834 0 
L 219 0 
L 1656 2153 
L 400 3500 
L 1069 3500 
L 2597 1856 
L 2597 3500 
z
" transform="scale(0.015625)"/>
       <path id="DejaVuSans-438" d="M 3578 3500 
L 3578 0 
L 3006 0 
L 3006 2809 
L 1319 0 
L 581 0 
L 581 3500 
L 1153 3500 
L 1153 697 
L 2838 3500 
L 3578 3500 
z
" transform="scale(0.015625)"/>
       <path id="DejaVuSans-434" d="M 1384 459 
L 3053 459 
L 3053 3041 
L 1844 3041 
L 1844 2603 
Q 1844 1316 1475 628 
L 1384 459 
z
M 550 459 
Q 834 584 959 850 
Q 1266 1509 1266 2838 
L 1266 3500 
L 3631 3500 
L 3631 459 
L 4091 459 
L 4091 -884 
L 3631 -884 
L 3631 0 
L 794 0 
L 794 -884 
L 334 -884 
L 334 459 
L 550 459 
z
" transform="scale(0.015625)"/>
       <path id="DejaVuSans-44f" d="M 1181 2491 
Q 1181 2231 1381 2084 
Q 1581 1938 1953 1938 
L 2728 1938 
L 2728 3041 
L 1953 3041 
Q 1581 3041 1381 2897 
Q 1181 2753 1181 2491 
z
M 363 0 
L 1431 1534 
Q 1069 1616 828 1830 
Q 588 2044 588 2491 
Q 588 2997 923 3248 
Q 1259 3500 1938 3500 
L 3306 3500 
L 3306 0 
L 2728 0 
L 2728 1478 
L 2013 1478 
L 981 0 
L 363 0 
z
" transform="scale(0.015625)"/>
       <path id="DejaVuSans-433" d="M 581 0 
L 581 3500 
L 3050 3500 
L 3050 3041 
L 1159 3041 
L 1159 0 
L 581 0 
z
" transform="scale(0.015625)"/>
      </defs>
      <use xlink:href="#DejaVuSans-417"/>
      <use xlink:href="#DejaVuSans-43e" transform="translate(64.111328 0)"/>
      <use xlink:href="#DejaVuSans-43d" transform="translate(125.292969 0)"/>
      <use xlink:href="#DejaVuSans-430" transform="translate(190.673828 0)"/>
      <use xlink:href="#DejaVuSans-20" transform="translate(251.953125 0)"/>
      <use xlink:href="#DejaVuSans-431" transform="translate(283.740234 0)"/>
      <use xlink:href="#DejaVuSans-435" transform="translate(345.410156 0)"/>
      <use xlink:href="#DejaVuSans-437" transform="translate(406.933594 0)"/>
      <use xlink:href="#DejaVuSans-20" transform="translate(460.107422 0)"/>
      <use xlink:href="#DejaVuSans-43e" transform="translate(491.894531 0)"/>
      <use xlink:href="#DejaVuSans-436" transform="translate(553.076172 0)"/>
      <use xlink:href="#DejaVuSans-438" transform="translate(643.164062 0)"/>
      <use xlink:href="#DejaVuSans-434" transform="translate(708.154297 0)"/>
      <use xlink:href="#DejaVuSans-430" transform="translate(777.294922 0)"/>
      <use xlink:href="#DejaVuSans-43d" transform="translate(838.574219 0)"/>
      <use xlink:href="#DejaVuSans-438" transform="translate(903.955078 0)"/>
      <use xlink:href="#DejaVuSans-44f" transform="translate(968.945312 0)"/>
      <use xlink:href="#DejaVuSans-20" transform="translate(1029.101562 0)"/>
      <use xlink:href="#DejaVuSans-32" transform="translate(1060.888672 0)"/>
      <use xlink:href="#DejaVuSans-433" transform="translate(1124.511719 0)"/>
      <use xlink:href="#DejaVuSans-43e" transform="translate(1177.050781 0)"/>
     </g>
    </g>
    <g id="patch_11">
     <path d="M 487.176562 242.936563 
L 507.176562 242.936563 
L 507.176562 235.936563 
L 487.176562 235.936563 
z
" style="fill: #008000; fill-opacity: 0.3; stroke: #008000; stroke-opacity: 0.3; stroke-linejoin: miter"/>
    </g>
    <g id="text_20">
     <!-- Зона без ожидания 1го -->
     <g transform="translate(515.176563 242.936563) scale(0.1 -0.1)">
      <use xlink:href="#DejaVuSans-417"/>
      <use xlink:href="#DejaVuSans-43e" transform="translate(64.111328 0)"/>
      <use xlink:href="#DejaVuSans-43d" transform="translate(125.292969 0)"/>
      <use xlink:href="#DejaVuSans-430" transform="translate(190.673828 0)"/>
      <use xlink:href="#DejaVuSans-20" transform="translate(251.953125 0)"/>
      <use xlink:href="#DejaVuSans-431" transform="translate(283.740234 0)"/>
      <use xlink:href="#DejaVuSans-435" transform="translate(345.410156 0)"/>
      <use xlink:href="#DejaVuSans-437" transform="translate(406.933594 0)"/>
      <use xlink:href="#DejaVuSans-20" transform="translate(460.107422 0)"/>
      <use xlink:href="#DejaVuSans-43e" transform="translate(491.894531 0)"/>
      <use xlink:href="#DejaVuSans-436" transform="translate(553.076172 0)"/>
      <use xlink:href="#DejaVuSans-438" transform="translate(643.164062 0)"/>
      <use xlink:href="#DejaVuSans-434" transform="translate(708.154297 0)"/>
      <use xlink:href="#DejaVuSans-430" transform="translate(777.294922 0)"/>
      <use xlink:href="#DejaVuSans-43d" transform="translate(838.574219 0)"/>
      <use xlink:href="#DejaVuSans-438" transform="translate(903.955078 0)"/>
      <use xlink:href="#DejaVuSans-44f" transform="translate(968.945312 0)"/>
      <use xlink:href="#DejaVuSans-20" transform="translate(1029.101562 0)"/>
      <use xlink:href="#DejaVuSans-31" transform="translate(1060.888672 0)"/>
      <use xlink:href="#DejaVuSans-433" transform="translate(1124.511719 0)"/>
      <use xlink:href="#DejaVuSans-43e" transform="translate(1177.050781 0)"/>
     </g>
    </g>
   </g>
  </g>
 </g>
 <defs>
  <clipPath id="p277d882e0b">
   <rect x="90" y="51.84" width="558" height="332.64"/>
  </clipPath>
 </defs>
</svg>
